<svg xmlns="http://www.w3.org/2000/svg" version="1.1" xmlns:xlink="http://www.w3.org/1999/xlink" xmlns:svgjs="http://svgjs.dev/svgjs" width="1000" height="1000" viewBox="0 0 1000 1000"><rect width="1000" height="1000" fill="#ed2647"></rect><g transform="matrix(0.7,0,0,0.7,150,106.25)"><svg viewBox="0 0 320 360" data-background-color="#ed2647" preserveAspectRatio="xMidYMid meet" height="1125" width="1000" xmlns="http://www.w3.org/2000/svg" xmlns:xlink="http://www.w3.org/1999/xlink"><g id="tight-bounds" transform="matrix(1,0,0,1,0,0)"><svg viewBox="0 0 320 360" height="360" width="320"><g><svg></svg></g><g><svg viewBox="0 0 320 360" height="360" width="320"><g><path d="M297.491 100.645c-12.426-21.51-112.674-79.355-137.491-79.355-24.817 0-125.028 57.845-137.491 79.355-11.591 20.02-11.591 138.726 0 158.746 12.463 21.474 112.674 79.319 137.491 79.319 24.817 0 125.064-57.845 137.491-79.355 11.591-20.02 11.591-138.69 0-158.71zM309.481 93.705c-14.461-24.998-119.469-86.295-149.481-86.295-30.012 0-135.02 61.297-149.481 86.295-14.025 24.199-14.025 148.391 0 172.59 14.461 24.998 119.469 86.295 149.481 86.295 30.012 0 135.02-61.297 149.481-86.259 14.025-24.235 14.025-148.427 0-172.626zM300.906 261.353c-12.753 22.055-115.472 81.317-140.906 81.318-25.434 0-128.153-59.298-140.906-81.354-11.881-20.529-11.881-142.178 0-162.707 12.753-22.019 115.472-81.281 140.906-81.281 25.434 0 128.153 59.298 140.906 81.318 11.881 20.529 11.881 142.178 0 162.706z" fill="#8d021f" fill-rule="nonzero" stroke="none" stroke-width="1" stroke-linecap="butt" stroke-linejoin="miter" stroke-miterlimit="10" stroke-dasharray="" stroke-dashoffset="0" font-family="none" font-weight="none" font-size="none" text-anchor="none" style="mix-blend-mode: normal" data-fill-palette-color="tertiary"></path></g><g transform="matrix(1,0,0,1,86.77486910994764,90)"><svg viewBox="0 0 146.4502617801047 180" height="180" width="146.4502617801047"><g><svg viewBox="0 0 146.4502617801047 180" height="180" width="146.4502617801047"><g><svg viewBox="0 0 146.4502617801047 180" height="180" width="146.4502617801047"><g id="textblocktransform"><svg viewBox="0 0 146.4502617801047 180" height="180" width="146.4502617801047" id="textblock"><g><svg viewBox="0 0 146.4502617801047 180" height="180" width="146.4502617801047"><g transform="matrix(1,0,0,1,0,0)"><svg width="146.4502617801047" viewBox="2.3 -42.3 38.85000000000001 47.75" height="180" data-palette-color="#ed2647"><path d="M41.15-29.8Q41.15-25.55 38.95-22 36.75-18.45 32.55-16.2 28.35-13.95 22.55-13.55L22.55-13.55 20.4-1.5Q19.15 5.45 13.6 5.45L13.6 5.45Q10.55 5.45 7.98 3.65 5.4 1.85 3.85-1.85 2.3-5.55 2.3-10.95L2.3-10.95Q2.3-21.1 5.58-28.18 8.85-35.25 14.38-38.78 19.9-42.3 26.55-42.3L26.55-42.3Q31.25-42.3 34.52-40.65 37.8-39 39.48-36.18 41.15-33.35 41.15-29.8L41.15-29.8ZM23.45-18.7Q33.7-20 33.7-29.35L33.7-29.35Q33.7-32.65 31.53-34.73 29.35-36.8 24.8-36.8L24.8-36.8Q19.65-36.8 15.83-33.55 12-30.3 9.93-24.53 7.85-18.75 7.85-11.35L7.85-11.35Q7.85-8.25 8.47-5.85 9.1-3.45 10.08-2.13 11.05-0.8 11.95-0.8L11.95-0.8Q13.2-0.8 13.85-4.25L13.85-4.25 15.5-13.7Q13.55-14 13.8-13.95L13.8-13.95Q12.3-14.2 11.85-14.88 11.4-15.55 11.4-16.6L11.4-16.6Q11.4-17.7 12.03-18.35 12.65-19 13.75-19L13.75-19Q14.25-19 14.5-18.95L14.5-18.95Q15.7-18.75 16.35-18.7L16.35-18.7Q17-22.6 18.2-29.15L18.2-29.15Q18.5-30.85 19.58-31.58 20.65-32.3 22.1-32.3L22.1-32.3Q23.75-32.3 24.48-31.68 25.2-31.05 25.2-29.7L25.2-29.7Q25.2-28.9 25.1-28.4L25.1-28.4 23.45-18.7Z" opacity="1" transform="matrix(1,0,0,1,0,0)" fill="#ed2647" class="wordmark-text-0" data-fill-palette-color="quaternary" id="text-0"></path></svg></g></svg></g></svg></g></svg></g><g></g></svg></g></svg></g></svg></g><defs></defs></svg><rect width="320" height="360" fill="none" stroke="none" visibility="hidden"></rect></g></svg></g></svg>